<?xml version="1.0" encoding="utf-8"?>
<!-- Svg Vector Icons : http://www.onlinewebfonts.com/icon -->
<!DOCTYPE svg PUBLIC "-//W3C//DTD SVG 1.1//EN" "http://www.w3.org/Graphics/SVG/1.1/DTD/svg11.dtd">
<svg version="1.1" xmlns="http://www.w3.org/2000/svg" xmlns:xlink="http://www.w3.org/1999/xlink" x="0px" y="0px" viewBox="0 0 1000 1000" enable-background="new 0 0 1000 1000" xml:space="preserve">
<metadata> Svg Vector Icons : http://www.onlinewebfonts.com/icon </metadata>
<g><path d="M812.5,450c-21.1,20.5-55.2,20.5-76.3,0V337.6H107.8c-53.9,0-97.8-43-97.8-95.9s43.9-95.9,97.8-95.9h628.5V28.5c21.1-20.7,55.2-20.7,76.3,0L974.1,205c21.1,20.6,21.1,54,0,74.7L812.5,450L812.5,450z"/><path d="M974.3,718.1L806.6,552.7c-21.1-20.9-55.2-20.9-76.3,0v112.8H115.5c-54,0-97.8,43.3-97.8,96.5c0,53.3,43.8,96.5,97.8,96.5h614.7v112.9c21.1,20.7,55.3,20.7,76.3,0l167.7-165.4C995.2,785.3,995.2,738.9,974.3,718.1L974.3,718.1z"/></g>
</svg>