<?xml version="1.0" encoding="utf-8"?>
<!-- Svg Vector Icons : http://www.onlinewebfonts.com/icon -->
<!DOCTYPE svg PUBLIC "-//W3C//DTD SVG 1.1//EN" "http://www.w3.org/Graphics/SVG/1.1/DTD/svg11.dtd">
<svg version="1.1" xmlns="http://www.w3.org/2000/svg" xmlns:xlink="http://www.w3.org/1999/xlink" x="0px" y="0px" viewBox="0 0 1000 1000" enable-background="new 0 0 1000 1000" xml:space="preserve">
<metadata> Svg Vector Icons : http://www.onlinewebfonts.com/icon </metadata>
<g><path d="M959.4,224.4H40.6c-16.9,0-30.6-13.7-30.6-30.6s13.7-30.6,30.6-30.6h918.8c16.9,0,30.6,13.7,30.6,30.6S976.3,224.4,959.4,224.4z"/><path d="M745,224.4c-16.9,0-30.6-13.7-30.6-30.6V86.6c0-8.4-6.9-15.3-15.3-15.3H300.9c-8.4,0-15.3,6.9-15.3,15.3v107.2c0,16.9-13.7,30.6-30.6,30.6s-30.6-13.7-30.6-30.6V86.6c0-42.2,34.3-76.6,76.6-76.6h398.1c42.2,0,76.6,34.3,76.6,76.6v107.2C775.6,210.7,761.9,224.4,745,224.4z"/><path d="M729.7,990H270.3c-67.5,0-122.5-55-122.5-122.5V316.3c0-16.9,13.7-30.6,30.6-30.6s30.6,13.7,30.6,30.6v551.3c0,33.8,27.5,61.3,61.3,61.3h459.4c33.8,0,61.3-27.5,61.3-61.3V316.3c0-16.9,13.7-30.6,30.6-30.6s30.6,13.7,30.6,30.6v551.3C852.2,935,797.2,990,729.7,990z"/><path d="M392.8,775.6c-16.9,0-30.6-13.7-30.6-30.6V316.3c0-16.9,13.7-30.6,30.6-30.6s30.6,13.7,30.6,30.6V745C423.4,761.9,409.7,775.6,392.8,775.6z"/><path d="M607.2,775.6c-16.9,0-30.6-13.7-30.6-30.6V316.3c0-16.9,13.7-30.6,30.6-30.6s30.6,13.7,30.6,30.6V745C637.8,761.9,624.1,775.6,607.2,775.6z"/></g>
</svg>